<?xml version="1.0" standalone="no"?>
<!DOCTYPE svg PUBLIC "-//W3C//DTD SVG 20010904//EN"
 "http://www.w3.org/TR/2001/REC-SVG-20010904/DTD/svg10.dtd">
<svg version="1.0" xmlns="http://www.w3.org/2000/svg"
 width="260.000000pt" height="260.000000pt" viewBox="0 0 260.000000 260.000000"
 preserveAspectRatio="xMidYMid meet">
<metadata>
Created by potrace 1.14, written by Peter Selinger 2001-2017
</metadata>
<g transform="translate(0.000000,260.000000) scale(0.100000,-0.100000)"
fill="#000000" stroke="none">
<path d="M110 1269 l0 -729 124 0 123 0 -1 565 c0 311 1 565 5 565 3 0 38
-135 79 -300 l73 -301 116 3 116 3 16 65 c19 76 59 241 65 273 2 12 19 81 38
152 l33 130 -1 -578 -1 -578 125 3 125 3 0 725 0 725 -173 1 -172 1 -11 -41
c-6 -23 -25 -95 -44 -161 -18 -66 -50 -183 -70 -260 -45 -167 -51 -181 -60
-140 -4 17 -42 158 -85 315 l-77 285 -171 1 -172 1 0 -728z"/>
<path d="M1439 1998 c-1 -2 -2 -331 -3 -731 l-1 -729 330 5 c348 4 402 10 497
58 143 72 205 227 174 432 -21 135 -119 245 -243 272 -44 9 -41 19 10 35 120
36 187 139 187 289 0 197 -101 313 -310 357 -34 7 -639 19 -641 12z m565 -243
c21 -7 48 -23 61 -35 23 -22 42 -77 40 -115 -1 -11 -2 -34 -3 -52 -1 -20 -14
-46 -32 -67 -39 -44 -92 -56 -244 -56 l-113 0 0 170 0 171 126 -2 c75 0 142
-6 165 -14z m146 -435 c0 -5 -5 -10 -11 -10 -5 0 -7 5 -4 10 3 6 8 10 11 10 2
0 4 -4 4 -10z m-94 -148 c23 -12 53 -38 65 -59 21 -33 24 -51 24 -133 0 -81
-3 -100 -23 -131 -36 -59 -81 -72 -258 -77 l-151 -4 0 217 1 217 150 -4 c131
-3 157 -7 192 -26z"/>
</g>
</svg>
